<svg id="Layer_1" data-name="Layer 1" xmlns="http://www.w3.org/2000/svg" viewBox="0 0 640.81 655.47"><defs><style>.cls-1{fill:#231f20;}.cls-2{fill:#00aeef;stroke:#00aeef;}.cls-2,.cls-4{stroke-miterlimit:10;}.cls-3{fill:#fff;}.cls-4{fill:none;stroke:#fff;stroke-linecap:square;stroke-width:3px;stroke-dasharray:1.99 1.99;}</style></defs><title>finallogo</title><circle class="cls-1" cx="323.43" cy="326.24" r="317.39"/><path class="cls-2" d="M383,407.86,282.4,222.19a10.53,10.53,0,0,0-9.26-5.51H240.44l.08.15h-.21V381.55q0,23.79-7.17,34.45T205,426.66q-20.64,0-27.8-10.67T170,381.55V227.36a10.53,10.53,0,0,0-10.53-10.53H142.07a10.53,10.53,0,0,0-10.53,10.53V396.93q0,18.54,6.47,32.17t17.49,21a82.11,82.11,0,0,0,23.43,10.84,97.09,97.09,0,0,0,26.4,3.5,95.27,95.27,0,0,0,26.23-3.5,82.64,82.64,0,0,0,23.26-10.84q11-7.34,17.49-21t6.47-32.17V329.7c0-10.94,14.62-14.63,19.8-5l73.08,135.79a10.53,10.53,0,0,0,9.27,5.54h31.45a10.49,10.49,0,0,0,6.81-2.53l-17.11-56.76A10.53,10.53,0,0,1,383,407.86Z"/><path class="cls-3" d="M422.63,457.95,477,228.76a10.53,10.53,0,0,0-10.25-13H454.34A10.53,10.53,0,0,0,444.08,224L402.57,405.19a11.17,11.17,0,0,1-.49,1.57l17.11,56.76A10.49,10.49,0,0,0,422.63,457.95Z"/><circle class="cls-4" cx="380.82" cy="285.25" r="20.95"/><circle class="cls-4" cx="494.37" cy="340.92" r="20.95"/></svg>