<svg id="Layer_1" data-name="Layer 1" xmlns="http://www.w3.org/2000/svg" viewBox="0 0 160 100"><defs><style>.cls-1{fill:#231f20;}.cls-2{fill:#00adee;stroke:#00adee;}.cls-2,.cls-4{stroke-miterlimit:10;}.cls-3{fill:#fff;}.cls-4{fill:none;stroke:#fff;stroke-linecap:square;}</style></defs><title>offer</title><circle class="cls-1" cx="80" cy="51.57" r="44.68"/><path class="cls-2" d="M91.9,64.47,77.73,38.33a1.48,1.48,0,0,0-1.3-.78h-4.6v0h0V60.76a8.94,8.94,0,0,1-1,4.85q-1,1.5-4,1.5t-3.91-1.5a8.93,8.93,0,0,1-1-4.85V39.06a1.48,1.48,0,0,0-1.48-1.48H58a1.48,1.48,0,0,0-1.48,1.48V62.93a10.46,10.46,0,0,0,.91,4.53,7.1,7.1,0,0,0,2.46,3,11.56,11.56,0,0,0,3.3,1.53,13.67,13.67,0,0,0,3.72.49,13.41,13.41,0,0,0,3.69-.49,11.63,11.63,0,0,0,3.27-1.53,7.11,7.11,0,0,0,2.46-3,10.48,10.48,0,0,0,.91-4.53V53.47a1.48,1.48,0,0,1,2.79-.7L90.3,71.88a1.48,1.48,0,0,0,1.31.78H96a1.48,1.48,0,0,0,1-.36l-2.41-8A1.48,1.48,0,0,1,91.9,64.47Z"/><path class="cls-3" d="M97.47,71.52l7.65-32.26a1.48,1.48,0,0,0-1.44-1.82h-1.74a1.48,1.48,0,0,0-1.45,1.15L94.65,64.09a1.57,1.57,0,0,1-.07.22l2.41,8A1.48,1.48,0,0,0,97.47,71.52Z"/><circle class="cls-4" cx="91.59" cy="47.21" r="2.95"/><circle class="cls-4" cx="107.57" cy="55.05" r="2.95"/></svg>